<?xml version="1.0" encoding="UTF-8"?>
<svg xmlns="http://www.w3.org/2000/svg" version="1.1" viewBox="0 0 173 35">
  <defs>
    <style>
      .cls-1 {
        fill: #fff;
        font-family: Helvetica-Bold, Helvetica;
        font-size: 31.7px;
        font-weight: 700;
      }

      .cls-2 {
        fill: #986dff;
      }
    </style>
  </defs>
  <!-- Generator: Adobe Illustrator 28.6.0, SVG Export Plug-In . SVG Version: 1.2.0 Build 709)  -->
  <g>
    <g id="Camada_1">
      <g>
        <path class="cls-2" d="M124.7,6.8c-.4,0-.8,0-1,.2-.2.1-.4.4-.5.8,0,.4-.1,1.1-.1,2.1v3.1c0,.8-.1,1.5-.4,2.1-.2.6-.5,1-.8,1.4-.3.4-.6.6-.9.8.2.2.5.4.8.8.3.3.6.7.9,1.2.2.5.4,1,.4,1.6v3.7c0,.9,0,1.6.1,2.1.1.4.3.7.5.8.2.1.6.2,1,.2h1.2v3.8h-2.5c-.6,0-1.2,0-1.7,0-.6,0-1.1-.1-1.6-.3-.5-.2-.9-.6-1.2-1.1-.3-.5-.4-1.3-.4-2.3v-5.2c0-.6,0-1.2-.3-1.7-.2-.6-.5-1-.8-1.4-.4-.4-.8-.5-1.4-.5v-3.6c.6,0,1-.2,1.4-.5.4-.4.7-.8.8-1.3.2-.6.3-1.2.3-1.8v-4.9c0-1,.1-1.8.4-2.3.3-.5.6-.9,1.1-1.1.5-.2,1-.3,1.6-.3.6,0,1.2,0,1.8,0h2.5v3.8h-1.2ZM148,17.5c0,2.1-.3,4.1-.8,6-.5,1.9-1.1,3.5-1.9,4.9-.8,1.5-1.6,2.7-2.5,3.6l-3.6-1.7c.8-.9,1.5-2,2.2-3.3.6-1.2,1.2-2.7,1.5-4.2.4-1.6.6-3.4.6-5.3s-.2-3.7-.6-5.2c-.4-1.6-.9-3-1.5-4.3-.6-1.3-1.4-2.4-2.2-3.3l3.6-1.7c.9.9,1.7,2.1,2.5,3.6s1.4,3.1,1.9,5c.5,1.8.8,3.8.8,5.9Z"/>
        <text class="cls-1" transform="translate(1.2 28)"><tspan x="0" y="0">VASEM</tspan></text>
        <text class="cls-1" transform="translate(151.6 28)"><tspan x="0" y="0">L</tspan></text>
      </g>
    </g>
  </g>
</svg>